<?xml version="1.0" standalone="no"?>
<!DOCTYPE svg PUBLIC "-//W3C//DTD SVG 20010904//EN"
 "http://www.w3.org/TR/2001/REC-SVG-20010904/DTD/svg10.dtd">
<svg version="1.0" xmlns="http://www.w3.org/2000/svg"
 width="1091.000000pt" height="212.000000pt" viewBox="0 0 1091.000000 212.000000"
 preserveAspectRatio="xMidYMid meet">

<g transform="translate(0.000000,212.000000) scale(0.100000,-0.100000)"
fill="#000000" stroke="none">
<path d="M375 2036 c-108 -35 -195 -110 -242 -211 l-28 -60 0 -705 0 -705 31
-65 c39 -83 101 -145 184 -184 l65 -31 700 0 700 0 65 31 c83 39 145 101 184
184 l31 65 0 705 0 705 -31 65 c-39 82 -101 144 -184 184 l-65 31 -685 2
c-535 2 -694 -1 -725 -11z m899 -146 c114 -29 208 -83 291 -165 125 -125 184
-257 193 -431 15 -301 -162 -567 -446 -671 -100 -37 -276 -44 -390 -15 -105
27 -193 70 -272 134 l-62 50 -23 -22 -23 -21 -7 116 c-4 64 -4 119 -1 122 5 5
58 -3 179 -29 l49 -10 -27 -28 -27 -28 48 -36 c157 -114 330 -151 494 -105
269 74 434 306 417 582 -14 222 -134 397 -338 491 -172 80 -367 72 -538 -19
-36 -20 -55 -27 -41 -16 130 105 347 147 524 101z m-204 -550 l0 -470 -44 0
c-111 0 -265 80 -336 174 -118 156 -137 334 -54 504 73 150 235 260 387 261
l47 1 0 -470z m155 456 c172 -45 308 -190 344 -364 16 -75 14 -92 -7 -92 -15
0 -21 13 -31 67 -32 175 -149 304 -316 348 -33 8 -65 15 -72 15 -10 0 -13 -89
-13 -450 0 -443 0 -450 -20 -450 -20 0 -20 7 -20 470 l0 470 43 0 c23 0 65 -6
92 -14z m-714 -645 c73 -74 1 -193 -97 -161 -68 23 -87 109 -35 161 41 40 91
40 132 0z m256 -647 c22 -22 25 -32 20 -72 -7 -60 -32 -82 -98 -82 l-49 0 0
90 0 90 50 0 c41 0 56 -5 77 -26z m83 11 c0 -8 -9 -15 -20 -15 -11 0 -20 7
-20 15 0 8 9 15 20 15 11 0 20 -7 20 -15z m220 0 c0 -8 -9 -15 -20 -15 -11 0
-20 7 -20 15 0 8 9 15 20 15 11 0 20 -7 20 -15z m148 3 c15 -15 16 -64 2 -73
-6 -4 -7 -11 -4 -17 4 -6 10 -26 14 -44 7 -31 6 -34 -16 -34 -17 0 -24 6 -24
19 0 33 -11 51 -31 51 -15 0 -19 -7 -19 -35 0 -28 -4 -35 -20 -35 -19 0 -20 7
-20 90 l0 90 53 0 c29 0 58 -5 65 -12z m442 -3 c0 -8 -9 -15 -20 -15 -11 0
-20 7 -20 15 0 8 9 15 20 15 11 0 20 -7 20 -15z m80 -15 c0 -11 7 -20 15 -20
8 0 15 -5 15 -10 0 -6 -7 -13 -15 -16 -21 -9 -20 -70 2 -78 24 -9 1 -29 -28
-24 -21 3 -24 9 -27 48 -2 26 -10 48 -18 53 -18 10 -18 27 1 27 8 0 15 6 15
14 0 13 13 23 33 25 4 1 7 -8 7 -19z m-890 -85 c0 -58 -2 -65 -20 -65 -18 0
-20 7 -20 65 0 58 2 65 20 65 18 0 20 -7 20 -65z m150 -13 c0 -89 -8 -102 -62
-102 -28 0 -40 5 -49 21 -10 20 -9 21 30 14 27 -4 41 -3 41 4 0 6 -11 11 -24
11 -34 0 -56 25 -56 65 0 46 22 65 76 65 l44 0 0 -78z m70 13 c0 -58 -2 -65
-20 -65 -18 0 -20 7 -20 65 0 58 2 65 20 65 18 0 20 -7 20 -65z m282 48 c10
-9 18 -27 18 -40 0 -20 -5 -23 -41 -23 -25 0 -38 -4 -34 -10 4 -6 21 -8 41 -4
19 3 34 2 34 -3 0 -18 -25 -33 -57 -33 -56 0 -81 70 -41 117 15 18 58 16 80
-4z m226 4 c7 -5 12 -32 12 -63 0 -47 -2 -54 -20 -54 -17 0 -20 7 -20 51 0 43
-3 50 -17 47 -14 -2 -19 -15 -21 -51 -3 -39 -6 -47 -23 -47 -16 0 -19 7 -19
51 0 43 -3 50 -17 47 -14 -2 -19 -15 -21 -51 -3 -39 -6 -47 -23 -47 -17 0 -19
7 -19 64 l0 64 88 0 c48 -1 93 -5 100 -11z m82 -52 c0 -58 -2 -65 -20 -65 -18
0 -20 7 -20 65 0 58 2 65 20 65 18 0 20 -7 20 -65z m-540 -139 c0 -7 9 -16 21
-19 16 -4 20 -12 17 -34 -2 -22 -9 -29 -30 -31 -27 -3 -28 -2 -28 47 0 28 5
51 10 51 6 0 10 -6 10 -14z m235 -36 c0 -43 -1 -45 -32 -48 l-33 -3 0 51 0 51
33 -3 c31 -3 32 -5 32 -48z m62 18 l18 -33 3 33 c5 51 22 37 22 -18 0 -62 -20
-67 -49 -12 l-20 37 -1 -37 c0 -21 -4 -38 -10 -38 -5 0 -10 23 -10 50 0 60 20
67 47 18z m73 -18 c0 -27 -4 -50 -10 -50 -5 0 -10 23 -10 50 0 28 5 50 10 50
6 0 10 -22 10 -50z m98 36 c-12 -8 -18 -27 -18 -50 0 -20 -4 -36 -10 -36 -5 0
-10 18 -10 40 0 29 -4 40 -15 40 -8 0 -15 5 -15 10 0 6 19 10 43 10 37 -1 40
-2 25 -14z m102 -6 c0 -13 5 -18 15 -14 17 7 21 -11 4 -21 -7 -5 -4 -14 7 -26
16 -17 16 -19 1 -19 -10 0 -17 6 -18 13 0 10 -2 10 -6 0 -11 -29 -23 -10 -23
37 0 28 5 50 10 50 6 0 10 -9 10 -20z m-493 -32 l10 -23 7 23 c4 12 12 22 18
22 5 0 8 -3 6 -7 -2 -5 -10 -25 -18 -45 -17 -45 -26 -48 -32 -10 -3 15 -9 35
-13 45 -4 9 -3 17 2 17 6 0 14 -10 20 -22z m454 6 c17 -21 0 -49 -31 -49 -31
0 -48 28 -31 49 8 9 21 16 31 16 10 0 23 -7 31 -16z m106 -6 l10 -23 7 23 c4
12 12 22 18 22 5 0 8 -3 6 -7 -2 -5 -10 -25 -18 -45 -17 -45 -26 -48 -32 -10
-3 15 -9 35 -13 45 -4 9 -3 17 2 17 6 0 14 -10 20 -22z m114 6 c17 -21 0 -49
-32 -49 -24 0 -36 23 -25 51 7 19 40 18 57 -2z"/>
<path d="M975 1763 c-252 -54 -401 -309 -325 -556 46 -148 182 -266 338 -292
l42 -7 0 431 c0 473 5 437 -55 424z"/>
<path d="M410 1123 c0 -5 4 -15 10 -23 6 -9 5 -17 -3 -22 -8 -5 -6 -8 6 -8 9
0 16 -3 16 -7 -1 -5 -1 -15 0 -23 1 -12 4 -11 12 3 6 9 12 25 14 35 2 9 6 25
10 35 4 9 3 17 -3 17 -6 0 -14 -10 -18 -22 l-7 -23 -10 23 c-10 21 -27 31 -27
15z"/>
<path d="M680 440 c0 -53 2 -60 20 -60 28 0 54 43 45 77 -7 31 -21 43 -47 43
-15 0 -18 -9 -18 -60z"/>
<path d="M1140 475 c0 -22 4 -26 23 -23 14 2 22 10 22 23 0 13 -8 21 -22 23
-19 3 -23 -1 -23 -23z"/>
<path d="M920 415 c0 -28 4 -35 20 -35 16 0 20 7 20 35 0 28 -4 35 -20 35 -16
0 -20 -7 -20 -35z"/>
<path d="M1300 440 c0 -5 7 -10 15 -10 8 0 15 5 15 10 0 6 -7 10 -15 10 -8 0
-15 -4 -15 -10z"/>
<path d="M1120 225 c0 -15 4 -24 10 -20 6 3 10 12 10 20 0 8 -4 17 -10 20 -6
4 -10 -5 -10 -20z"/>
<path d="M1310 260 c0 -5 7 -10 15 -10 8 0 15 5 15 10 0 6 -7 10 -15 10 -8 0
-15 -4 -15 -10z"/>
<path d="M1310 220 c0 -5 7 -10 15 -10 8 0 15 5 15 10 0 6 -7 10 -15 10 -8 0
-15 -4 -15 -10z"/>
<path d="M1611 241 c-15 -10 -8 -41 9 -41 15 0 25 29 14 40 -5 5 -15 5 -23 1z"/>
<path d="M1834 236 c-4 -10 -2 -22 4 -28 8 -8 13 -7 18 6 4 10 2 22 -4 28 -8
8 -13 7 -18 -6z"/>
<path d="M4152 1810 c-78 -32 -27 -150 53 -120 46 17 46 97 0 118 -14 7 -27
12 -28 11 -1 0 -12 -4 -25 -9z"/>
<path d="M6850 1545 l0 -275 55 0 55 0 0 275 0 275 -55 0 -55 0 0 -275z"/>
<path d="M7812 1810 c-78 -32 -27 -150 53 -120 46 17 46 97 0 118 -14 7 -27
12 -28 11 -1 0 -12 -4 -25 -9z"/>
<path d="M8472 1810 c-78 -32 -27 -150 53 -120 46 17 46 97 0 118 -14 7 -27
12 -28 11 -1 0 -12 -4 -25 -9z"/>
<path d="M10202 1810 c-78 -32 -27 -150 53 -120 46 17 46 97 0 118 -14 7 -27
12 -28 11 -1 0 -12 -4 -25 -9z"/>
<path d="M2600 1673 c-24 -70 -65 -190 -91 -265 l-48 -138 64 0 64 0 12 40 12
40 103 0 103 0 12 -40 12 -40 64 0 c62 0 64 1 57 23 -4 12 -44 130 -89 262
l-83 240 -75 3 -75 3 -42 -128z m146 -95 c15 -46 29 -89 32 -95 3 -10 -12 -13
-57 -13 -40 0 -61 4 -61 12 0 12 52 178 56 178 1 0 15 -37 30 -82z"/>
<path d="M3280 1710 c0 -49 -2 -90 -5 -90 -3 0 -17 8 -32 17 -42 28 -122 23
-173 -11 -78 -51 -107 -174 -62 -261 24 -49 46 -70 95 -90 49 -20 85 -19 132
5 47 24 45 24 45 5 0 -12 13 -15 55 -15 l55 0 0 265 0 265 -55 0 -55 0 0 -90z
m-26 -191 c29 -35 33 -67 11 -108 -17 -33 -33 -41 -84 -41 -52 0 -84 35 -84
91 0 55 36 89 93 89 30 0 43 -6 64 -31z"/>
<path d="M4950 1536 l0 -266 60 0 60 0 0 85 0 85 58 0 c164 1 254 150 169 279
-40 61 -82 75 -224 79 l-123 4 0 -266z m238 134 c28 -26 29 -73 2 -100 -15
-15 -33 -20 -70 -20 l-50 0 0 70 0 70 48 0 c35 0 54 -6 70 -20z"/>
<path d="M7250 1535 l0 -267 138 4 c129 3 140 5 190 32 86 48 132 128 132 231
0 101 -48 184 -132 230 -50 28 -61 30 -190 33 l-138 4 0 -267z m286 126 c83
-51 85 -200 2 -251 -24 -15 -50 -20 -100 -20 l-68 0 0 145 0 145 68 0 c48 0
76 -5 98 -19z"/>
<path d="M8650 1535 l0 -265 60 0 60 0 0 91 0 90 27 -3 c23 -2 36 -18 78 -90
l50 -88 63 0 63 0 -32 58 c-18 31 -43 74 -55 94 l-23 36 38 39 c70 70 76 160
14 234 -46 54 -92 69 -225 69 l-118 0 0 -265z m249 129 c26 -34 27 -68 1 -94
-15 -15 -33 -20 -75 -20 l-55 0 0 70 0 70 54 0 c47 0 57 -4 75 -26z"/>
<path d="M6178 1732 c-44 -14 -48 -18 -48 -48 0 -28 -4 -33 -27 -36 -26 -3
-28 -7 -31 -55 l-3 -53 30 0 31 0 1 -82 c0 -46 5 -99 12 -118 15 -44 64 -70
130 -70 l47 0 0 50 c0 48 -1 50 -28 50 -43 0 -52 17 -52 97 l0 73 40 0 40 0 0
55 0 55 -40 0 -40 0 0 50 c0 28 -3 50 -7 49 -5 0 -29 -8 -55 -17z"/>
<path d="M10448 1732 c-44 -14 -48 -18 -48 -48 0 -28 -4 -33 -27 -36 -26 -3
-28 -7 -31 -55 l-3 -53 30 0 31 0 1 -82 c0 -46 5 -99 12 -118 15 -44 64 -70
130 -70 l47 0 0 50 c0 48 -1 50 -28 50 -43 0 -52 17 -52 97 l0 73 40 0 40 0 0
55 0 55 -40 0 -40 0 0 50 c0 28 -3 50 -7 49 -5 0 -29 -8 -55 -17z"/>
<path d="M3625 1641 c-47 -25 -45 -25 -45 -5 0 12 -10 14 -52 12 l-53 -3 -3
-187 -2 -188 54 0 54 0 4 126 c3 119 4 127 27 145 26 21 58 18 79 -9 8 -11 12
-56 12 -139 l0 -123 55 0 55 0 0 123 c0 140 8 160 59 160 51 0 56 -12 59 -153
l4 -130 55 0 55 0 -4 143 c-4 169 -15 198 -84 229 -52 22 -109 18 -146 -12
-21 -17 -23 -17 -48 2 -40 29 -89 32 -135 9z"/>
<path d="M4483 1649 c-18 -5 -35 -14 -38 -19 -9 -15 -25 -12 -25 6 0 12 -10
14 -52 12 l-53 -3 -3 -187 -2 -188 55 0 55 0 0 109 c0 60 4 121 10 136 11 28
53 49 81 40 44 -14 49 -31 49 -161 l0 -124 55 0 55 0 0 143 c0 123 -3 146 -20
174 -35 59 -100 83 -167 62z"/>
<path d="M5491 1645 c-61 -19 -109 -69 -127 -132 -14 -48 -14 -58 0 -106 17
-59 60 -107 118 -131 135 -57 280 54 266 204 -12 124 -137 204 -257 165z m102
-107 c34 -18 46 -39 47 -81 0 -75 -83 -114 -142 -67 -32 24 -40 65 -23 106 21
51 70 68 118 42z"/>
<path d="M6493 1649 c-78 -23 -142 -134 -127 -219 14 -77 52 -128 117 -155 49
-20 85 -19 132 5 47 24 45 24 45 5 0 -12 13 -15 55 -15 l55 0 0 190 0 190 -55
0 c-42 0 -55 -3 -55 -15 0 -19 -5 -19 -33 -1 -30 20 -95 27 -134 15z m141
-130 c29 -35 33 -67 11 -108 -17 -33 -33 -41 -84 -41 -52 0 -84 35 -84 91 0
55 36 89 93 89 30 0 43 -6 64 -31z"/>
<path d="M8088 1651 c-114 -37 -167 -178 -105 -283 47 -81 159 -114 235 -68
l32 20 0 -33 c0 -69 -93 -104 -152 -57 l-26 20 -41 -23 c-22 -12 -41 -27 -41
-34 0 -18 58 -61 98 -73 119 -33 234 18 261 115 6 23 11 122 11 228 l0 187
-55 0 c-49 0 -55 -2 -55 -20 l0 -21 -27 20 c-33 24 -96 34 -135 22z m107 -105
c39 -16 55 -42 55 -86 0 -72 -97 -107 -155 -57 -48 41 -31 123 30 148 28 11
31 11 70 -5z"/>
<path d="M9245 1656 c-5 -3 -22 -7 -38 -10 -47 -11 -105 -72 -122 -129 -38
-127 42 -240 180 -254 46 -5 63 -1 109 21 71 35 75 49 24 80 -37 22 -44 23
-62 10 -33 -23 -91 -18 -123 11 l-28 24 139 1 138 0 -4 64 c-4 75 -33 124 -88
155 -35 20 -105 34 -125 27z m83 -116 c12 -12 22 -25 22 -30 0 -6 -36 -10 -80
-10 -77 0 -80 1 -70 20 23 43 91 54 128 20z"/>
<path d="M9685 1641 c-47 -25 -45 -25 -45 -5 0 12 -10 14 -52 12 l-53 -3 -3
-187 -2 -188 54 0 54 0 4 126 c3 119 4 127 27 145 26 21 58 18 79 -9 8 -11 12
-56 12 -139 l0 -123 55 0 55 0 0 123 c0 140 8 160 59 160 51 0 56 -12 59 -153
l4 -130 55 0 55 0 -4 143 c-4 169 -15 198 -84 229 -52 22 -109 18 -146 -12
-21 -17 -23 -17 -48 2 -40 29 -89 32 -135 9z"/>
<path d="M4127 1643 c-4 -3 -7 -89 -7 -190 l0 -183 55 0 55 0 0 190 0 190 -48
0 c-27 0 -52 -3 -55 -7z"/>
<path d="M5817 1643 c-4 -3 -7 -89 -7 -190 l0 -183 54 0 54 0 4 106 c3 102 4
107 31 130 16 14 41 24 58 24 29 0 29 0 29 60 0 57 -1 60 -25 60 -13 0 -40
-14 -60 -31 l-35 -31 0 31 c0 30 -1 31 -48 31 -27 0 -52 -3 -55 -7z"/>
<path d="M7787 1643 c-4 -3 -7 -89 -7 -190 l0 -183 55 0 55 0 0 190 0 190 -48
0 c-27 0 -52 -3 -55 -7z"/>
<path d="M8447 1643 c-4 -3 -7 -89 -7 -190 l0 -183 55 0 55 0 0 190 0 190 -48
0 c-27 0 -52 -3 -55 -7z"/>
<path d="M10177 1643 c-4 -3 -7 -89 -7 -190 l0 -183 55 0 55 0 0 190 0 190
-48 0 c-27 0 -52 -3 -55 -7z"/>
<path d="M2510 816 l0 -266 123 0 c173 1 220 21 253 107 20 52 9 107 -30 144
l-24 23 22 29 c29 39 29 115 0 154 -42 56 -77 68 -216 72 l-128 3 0 -266z
m234 138 c41 -40 7 -84 -65 -84 l-49 0 0 50 0 50 49 0 c32 0 55 -6 65 -16z
m14 -200 c26 -18 28 -50 5 -76 -12 -13 -31 -18 -75 -18 l-58 0 0 55 0 55 53 0
c31 0 61 -6 75 -16z"/>
<path d="M2960 815 l0 -265 60 0 59 0 3 140 3 139 99 -139 98 -140 44 0 44 0
0 265 0 265 -60 0 -59 0 -3 -142 -3 -142 -100 142 -100 142 -42 0 -43 0 0
-265z"/>
<path d="M3470 815 l0 -265 60 0 60 0 0 265 0 265 -60 0 -60 0 0 -265z"/>
<path d="M3830 1020 l0 -60 65 0 65 0 0 -205 0 -205 60 0 60 0 0 205 0 205 70
0 70 0 0 60 0 60 -195 0 -195 0 0 -60z"/>
<path d="M4640 815 l0 -265 55 0 55 0 0 80 c0 44 3 80 8 80 4 -1 32 -36 62
-80 l55 -79 64 -1 c49 0 61 3 54 13 -5 6 -37 49 -71 93 l-61 82 64 90 c36 49
65 92 65 96 0 3 -27 6 -60 6 l-60 0 -52 -80 c-29 -44 -56 -80 -60 -80 -5 0 -8
70 -8 155 l0 155 -55 0 -55 0 0 -265z"/>
<path d="M4321 925 c-61 -19 -109 -69 -127 -132 -14 -48 -14 -58 0 -106 17
-59 60 -107 118 -131 135 -57 280 54 266 204 -12 124 -137 204 -257 165z m102
-107 c34 -18 46 -39 47 -81 0 -75 -83 -114 -142 -67 -32 24 -40 65 -23 106 21
51 70 68 118 42z"/>
<path d="M5551 925 c-61 -19 -109 -69 -127 -132 -14 -48 -14 -58 0 -106 17
-59 60 -107 118 -131 135 -57 280 54 266 204 -12 124 -137 204 -257 165z m102
-107 c34 -18 46 -39 47 -81 0 -75 -83 -114 -142 -67 -32 24 -40 65 -23 106 21
51 70 68 118 42z"/>
<path d="M5010 920 c0 -6 32 -87 71 -181 80 -191 81 -207 15 -229 -35 -11 -36
-13 -36 -61 0 -47 1 -49 28 -49 43 1 107 35 134 71 14 19 37 66 51 104 57 153
117 328 117 341 0 10 -15 14 -53 14 l-54 0 -28 -92 c-49 -161 -41 -158 -89
-28 l-43 115 -56 3 c-36 2 -57 -1 -57 -8z"/>
</g>
</svg>
