<?xml version="1.0" encoding="utf-8"?>
<!-- Generator: Adobe Illustrator 24.0.0, SVG Export Plug-In . SVG Version: 6.00 Build 0)  -->
<svg version="1.1" id="Layer_1" xmlns="http://www.w3.org/2000/svg" xmlns:xlink="http://www.w3.org/1999/xlink" x="0px" y="0px"
	 viewBox="0 0 120.9 25" style="enable-background:new 0 0 120.9 25;" xml:space="preserve">
<style type="text/css">
	.st0{fill:none;stroke:#FF4600;stroke-width:2;stroke-linecap:round;stroke-linejoin:round;}
</style>
<g transform="translate(1)">
	<g transform="translate(0 1)">
		<path class="st0" d="M18,14V6c0-0.7-0.4-1.4-1-1.7l-7-4c-0.6-0.4-1.4-0.4-2,0l-7,4C0.4,4.6,0,5.3,0,6v8c0,0.7,0.4,1.4,1,1.7l7,4
			c0.6,0.4,1.4,0.4,2,0l7-4C17.6,15.4,18,14.7,18,14z"/>
		<polyline class="st0" points="4.5,2.2 9,4.8 13.5,2.2 		"/>
		<polyline class="st0" points="4.5,17.8 4.5,12.6 0,10 		"/>
		<polyline class="st0" points="18,10 13.5,12.6 13.5,17.8 		"/>
		<polyline class="st0" points="0.3,5 9,10 17.7,5 		"/>
		<line class="st0" x1="9" y1="20.1" x2="9" y2="10"/>
	</g>
	<g>
		<path d="M28.2,8.8h-2.1L25.7,10h-1.2l2.1-5.7h1.1l2.1,5.7h-1.2L28.2,8.8z M26.4,7.9h1.4l-0.7-2.1L26.4,7.9z"/>
		<path d="M30.1,7.9c0-0.7,0.1-1.2,0.4-1.6s0.7-0.6,1.2-0.6c0.4,0,0.8,0.2,1,0.5V4h1.1v6h-1l-0.1-0.4c-0.3,0.4-0.6,0.5-1.1,0.5
			c-0.5,0-0.9-0.2-1.2-0.6S30.1,8.6,30.1,7.9z M31.2,7.9c0,0.4,0.1,0.7,0.2,0.9s0.3,0.3,0.6,0.3c0.3,0,0.6-0.1,0.7-0.4V7.1
			c-0.1-0.3-0.4-0.4-0.7-0.4C31.5,6.6,31.2,7.1,31.2,7.9z"/>
		<path d="M35.8,5.8l0,0.5c0.3-0.4,0.7-0.6,1.2-0.6c0.5,0,0.9,0.2,1.1,0.6c0.3-0.4,0.7-0.6,1.3-0.6c0.5,0,0.8,0.1,1,0.4
			s0.3,0.7,0.3,1.2V10h-1.1V7.3c0-0.2,0-0.4-0.1-0.5s-0.3-0.2-0.5-0.2c-0.3,0-0.6,0.2-0.7,0.5l0,2.9h-1.1V7.3c0-0.2,0-0.4-0.1-0.5
			s-0.3-0.2-0.5-0.2c-0.3,0-0.6,0.1-0.7,0.4v3h-1.1V5.8H35.8z"/>
		<path d="M41.7,4.7c0-0.2,0.1-0.3,0.2-0.4s0.3-0.2,0.5-0.2c0.2,0,0.3,0.1,0.5,0.2S43,4.5,43,4.7c0,0.2-0.1,0.3-0.2,0.4
			s-0.3,0.2-0.5,0.2S42,5.2,41.9,5.1S41.7,4.9,41.7,4.7z M42.9,10h-1.1V5.8h1.1V10z"/>
		<path d="M44.9,5.8l0,0.5c0.3-0.4,0.7-0.6,1.2-0.6c0.4,0,0.8,0.1,1,0.4s0.3,0.7,0.3,1.2V10h-1.1V7.3c0-0.2-0.1-0.4-0.2-0.5
			s-0.3-0.2-0.5-0.2c-0.3,0-0.6,0.1-0.7,0.4v3h-1.1V5.8H44.9z"/>
		<path d="M51.5,8v2h-1.2V4.3h2.2c0.4,0,0.8,0.1,1.1,0.2s0.6,0.4,0.7,0.7s0.3,0.6,0.3,1c0,0.6-0.2,1-0.6,1.3S53.2,8,52.6,8H51.5z
			 M51.5,7h1c0.3,0,0.5-0.1,0.7-0.2s0.2-0.4,0.2-0.6c0-0.3-0.1-0.5-0.2-0.7s-0.4-0.3-0.7-0.3h-1.1V7z"/>
		<path d="M55.2,7.8c0-0.4,0.1-0.8,0.2-1.1s0.4-0.6,0.7-0.8s0.7-0.3,1.1-0.3c0.6,0,1,0.2,1.4,0.5s0.6,0.8,0.6,1.4l0,0.3
			c0,0.6-0.2,1.2-0.5,1.6s-0.8,0.6-1.5,0.6s-1.1-0.2-1.5-0.6S55.2,8.6,55.2,7.8L55.2,7.8z M56.4,7.9c0,0.4,0.1,0.7,0.2,0.9
			s0.4,0.3,0.6,0.3c0.3,0,0.5-0.1,0.6-0.3s0.2-0.5,0.2-1c0-0.4-0.1-0.7-0.2-0.9s-0.4-0.3-0.6-0.3c-0.3,0-0.5,0.1-0.6,0.3
			S56.4,7.5,56.4,7.9z"/>
		<path d="M62.3,6.8c-0.2,0-0.3,0-0.4,0c-0.4,0-0.7,0.1-0.8,0.4V10h-1.1V5.8H61l0,0.5c0.2-0.4,0.5-0.6,0.9-0.6c0.1,0,0.2,0,0.4,0.1
			L62.3,6.8z"/>
		<path d="M64.4,4.7v1h0.7v0.8h-0.7v2.1c0,0.2,0,0.3,0.1,0.3s0.2,0.1,0.3,0.1c0.1,0,0.2,0,0.3,0V10c-0.2,0.1-0.4,0.1-0.7,0.1
			c-0.8,0-1.2-0.4-1.2-1.2V6.6h-0.6V5.8h0.6v-1H64.4z"/>
		<path d="M68.2,10c-0.1-0.1-0.1-0.2-0.1-0.4c-0.3,0.3-0.6,0.5-1.1,0.5c-0.4,0-0.8-0.1-1-0.4s-0.4-0.5-0.4-0.9c0-0.4,0.2-0.8,0.5-1
			c0.3-0.2,0.8-0.4,1.4-0.4H68V7.2C68,7,68,6.8,67.9,6.7s-0.3-0.2-0.5-0.2c-0.2,0-0.3,0-0.4,0.1S66.8,6.9,66.8,7h-1.1
			c0-0.2,0.1-0.5,0.2-0.7s0.4-0.4,0.6-0.5s0.6-0.2,0.9-0.2c0.5,0,0.9,0.1,1.2,0.4s0.5,0.6,0.5,1.1V9c0,0.4,0.1,0.7,0.2,0.9V10H68.2z
			 M67.3,9.2c0.2,0,0.3,0,0.5-0.1S68,8.9,68,8.8V8.1h-0.4c-0.6,0-0.9,0.2-0.9,0.6l0,0.1c0,0.1,0,0.3,0.1,0.3S67.1,9.2,67.3,9.2z"/>
		<path d="M71.2,10h-1.1V4h1.1V10z"/>
		<path d="M76.3,7.9h-0.9V10h-1.2V4.3h2.1c0.7,0,1.2,0.1,1.6,0.4s0.5,0.7,0.5,1.3c0,0.4-0.1,0.7-0.3,1s-0.4,0.5-0.8,0.6l1.2,2.3V10
			h-1.3L76.3,7.9z M75.4,7h0.9c0.3,0,0.5-0.1,0.7-0.2s0.2-0.4,0.2-0.6c0-0.3-0.1-0.5-0.2-0.6s-0.4-0.2-0.7-0.2h-0.9V7z"/>
		<path d="M81.2,10.1c-0.6,0-1.1-0.2-1.5-0.6S79.1,8.6,79.1,8V7.9c0-0.4,0.1-0.8,0.2-1.1S79.7,6.1,80,6s0.6-0.3,1-0.3
			c0.6,0,1,0.2,1.4,0.5s0.5,0.9,0.5,1.6v0.5h-2.7c0,0.3,0.1,0.5,0.3,0.7s0.4,0.2,0.7,0.2c0.4,0,0.8-0.2,1-0.5l0.6,0.6
			c-0.2,0.2-0.4,0.4-0.7,0.6S81.6,10.1,81.2,10.1z M81.1,6.6c-0.2,0-0.4,0.1-0.5,0.2s-0.2,0.4-0.3,0.7h1.6V7.4
			c0-0.3-0.1-0.4-0.2-0.6S81.3,6.6,81.1,6.6z"/>
		<path d="M84.6,5.8l0,0.5c0.3-0.4,0.7-0.6,1.2-0.6c0.5,0,0.9,0.2,1.1,0.6c0.3-0.4,0.7-0.6,1.3-0.6c0.5,0,0.8,0.1,1,0.4
			s0.3,0.7,0.3,1.2V10h-1.1V7.3c0-0.2,0-0.4-0.1-0.5s-0.3-0.2-0.5-0.2c-0.3,0-0.6,0.2-0.7,0.5l0,2.9H86V7.3c0-0.2,0-0.4-0.1-0.5
			s-0.3-0.2-0.5-0.2c-0.3,0-0.6,0.1-0.7,0.4v3h-1.1V5.8H84.6z"/>
		<path d="M90.5,4.7c0-0.2,0.1-0.3,0.2-0.4s0.3-0.2,0.5-0.2c0.2,0,0.3,0.1,0.5,0.2s0.2,0.2,0.2,0.4c0,0.2-0.1,0.3-0.2,0.4
			s-0.3,0.2-0.5,0.2s-0.3-0.1-0.5-0.2S90.5,4.9,90.5,4.7z M91.7,10h-1.1V5.8h1.1V10z"/>
		<path d="M94,4.7v1h0.7v0.8H94v2.1C94,8.9,94,9,94.1,9s0.2,0.1,0.3,0.1c0.1,0,0.2,0,0.3,0V10c-0.2,0.1-0.4,0.1-0.7,0.1
			c-0.8,0-1.2-0.4-1.2-1.2V6.6h-0.6V5.8h0.6v-1H94z"/>
		<path d="M96.7,4.7v1h0.7v0.8h-0.7v2.1c0,0.2,0,0.3,0.1,0.3s0.2,0.1,0.3,0.1c0.1,0,0.2,0,0.3,0V10c-0.2,0.1-0.4,0.1-0.7,0.1
			c-0.8,0-1.2-0.4-1.2-1.2V6.6h-0.6V5.8h0.6v-1H96.7z"/>
		<path d="M100.5,10c-0.1-0.1-0.1-0.2-0.1-0.4c-0.3,0.3-0.6,0.5-1.1,0.5c-0.4,0-0.8-0.1-1-0.4s-0.4-0.5-0.4-0.9c0-0.4,0.2-0.8,0.5-1
			c0.3-0.2,0.8-0.4,1.4-0.4h0.5V7.2c0-0.2,0-0.4-0.2-0.5s-0.3-0.2-0.5-0.2c-0.2,0-0.3,0-0.4,0.1S99.1,6.9,99.1,7H98
			c0-0.2,0.1-0.5,0.2-0.7s0.4-0.4,0.6-0.5s0.6-0.2,0.9-0.2c0.5,0,0.9,0.1,1.2,0.4s0.5,0.6,0.5,1.1V9c0,0.4,0.1,0.7,0.2,0.9V10H100.5
			z M99.5,9.2c0.2,0,0.3,0,0.5-0.1s0.2-0.2,0.3-0.3V8.1h-0.4c-0.6,0-0.9,0.2-0.9,0.6l0,0.1c0,0.1,0,0.3,0.1,0.3S99.4,9.2,99.5,9.2z"
			/>
		<path d="M103.4,5.8l0,0.5c0.3-0.4,0.7-0.6,1.2-0.6c0.4,0,0.8,0.1,1,0.4s0.3,0.7,0.3,1.2V10h-1.1V7.3c0-0.2-0.1-0.4-0.2-0.5
			s-0.3-0.2-0.5-0.2c-0.3,0-0.6,0.1-0.7,0.4v3h-1.1V5.8H103.4z"/>
		<path d="M108.6,9.2c0.2,0,0.4-0.1,0.5-0.2s0.2-0.3,0.2-0.5h1.1c0,0.3-0.1,0.5-0.2,0.8s-0.4,0.4-0.6,0.6s-0.6,0.2-0.9,0.2
			c-0.6,0-1.1-0.2-1.4-0.6s-0.5-0.9-0.5-1.6V7.8c0-0.7,0.2-1.2,0.5-1.6s0.8-0.6,1.4-0.6c0.5,0,1,0.2,1.3,0.5s0.5,0.7,0.5,1.2h-1.1
			c0-0.2-0.1-0.4-0.2-0.5c-0.1-0.1-0.3-0.2-0.5-0.2c-0.3,0-0.5,0.1-0.6,0.3s-0.2,0.5-0.2,0.9v0.1c0,0.4,0.1,0.7,0.2,0.9
			S108.3,9.2,108.6,9.2z"/>
		<path d="M112.9,10.1c-0.6,0-1.1-0.2-1.5-0.6s-0.6-0.9-0.6-1.5V7.9c0-0.4,0.1-0.8,0.2-1.1s0.4-0.6,0.7-0.8s0.6-0.3,1-0.3
			c0.6,0,1,0.2,1.4,0.5s0.5,0.9,0.5,1.6v0.5H112c0,0.3,0.1,0.5,0.3,0.7s0.4,0.2,0.7,0.2c0.4,0,0.8-0.2,1-0.5l0.6,0.6
			c-0.2,0.2-0.4,0.4-0.7,0.6S113.3,10.1,112.9,10.1z M112.8,6.6c-0.2,0-0.4,0.1-0.5,0.2S112,7.2,112,7.5h1.6V7.4
			c0-0.3-0.1-0.4-0.2-0.6S113,6.6,112.8,6.6z"/>
		<path d="M26.7,16.7l-0.6,0.7V19H25v-5.7h1.2v2.6l0.5-0.7l1.4-1.9h1.4l-2,2.5l2.1,3.2h-1.4L26.7,16.7z"/>
		<path d="M34.4,17.1c0,0.6-0.3,1.1-0.7,1.4s-0.9,0.5-1.6,0.5c-0.7,0-1.3-0.2-1.7-0.7s-0.6-1.2-0.6-2V16c0-0.5,0.1-1,0.3-1.4
			s0.5-0.7,0.8-1s0.8-0.3,1.2-0.3c0.7,0,1.2,0.2,1.6,0.5c0.4,0.4,0.6,0.8,0.7,1.5h-1.2c0-0.4-0.1-0.6-0.3-0.8s-0.4-0.2-0.8-0.2
			c-0.4,0-0.7,0.1-0.9,0.4s-0.3,0.7-0.3,1.3v0.4c0,0.6,0.1,1.1,0.3,1.3s0.5,0.4,0.9,0.4c0.4,0,0.6-0.1,0.8-0.2s0.3-0.4,0.3-0.8H34.4
			z"/>
		<path d="M36.3,18.1h2.5V19h-3.7v-5.7h1.2V18.1z"/>
		<path d="M44.1,19h-1.2l-2.3-3.7V19h-1.2v-5.7h1.2l2.3,3.8v-3.8h1.2V19z"/>
		<path d="M51.2,14.3h-1.7V19h-1.2v-4.7h-1.7v-0.9h4.6V14.3z"/>
		<path d="M50.8,16.8c0-0.4,0.1-0.8,0.2-1.1c0.2-0.3,0.4-0.6,0.7-0.8s0.7-0.3,1.1-0.3c0.6,0,1,0.2,1.4,0.5s0.6,0.8,0.6,1.4l0,0.3
			c0,0.6-0.2,1.2-0.5,1.6s-0.8,0.6-1.5,0.6s-1.1-0.2-1.5-0.6S50.8,17.6,50.8,16.8L50.8,16.8z M51.9,16.9c0,0.4,0.1,0.7,0.2,0.9
			c0.2,0.2,0.4,0.3,0.6,0.3c0.3,0,0.5-0.1,0.6-0.3c0.2-0.2,0.2-0.5,0.2-1c0-0.4-0.1-0.7-0.2-0.9c-0.2-0.2-0.4-0.3-0.6-0.3
			c-0.3,0-0.5,0.1-0.6,0.3C52,16.1,51.9,16.5,51.9,16.9z"/>
		<path d="M57,17.3l-0.4,0.4V19h-1.1v-6h1.1v3.3l0.2-0.3l1.1-1.3h1.4l-1.5,1.8l1.7,2.5h-1.3L57,17.3z"/>
		<path d="M61.3,17.4l0.8-2.6h1.2l-1.7,4.9l-0.1,0.2c-0.3,0.6-0.7,0.8-1.2,0.8c-0.2,0-0.3,0-0.5-0.1v-0.9l0.2,0c0.2,0,0.4,0,0.5-0.1
			s0.2-0.2,0.2-0.3l0.1-0.3l-1.5-4.2h1.2L61.3,17.4z"/>
		<path d="M63.5,16.8c0-0.4,0.1-0.8,0.2-1.1c0.2-0.3,0.4-0.6,0.7-0.8s0.7-0.3,1.1-0.3c0.6,0,1,0.2,1.4,0.5s0.6,0.8,0.6,1.4l0,0.3
			c0,0.6-0.2,1.2-0.5,1.6s-0.8,0.6-1.5,0.6s-1.1-0.2-1.5-0.6S63.5,17.6,63.5,16.8L63.5,16.8z M64.7,16.9c0,0.4,0.1,0.7,0.2,0.9
			c0.2,0.2,0.4,0.3,0.6,0.3c0.3,0,0.5-0.1,0.6-0.3c0.2-0.2,0.2-0.5,0.2-1c0-0.4-0.1-0.7-0.2-0.9c-0.2-0.2-0.4-0.3-0.6-0.3
			c-0.3,0-0.5,0.1-0.6,0.3C64.7,16.1,64.7,16.5,64.7,16.9z"/>
	</g>
</g>
</svg>
